<svg width="20" height="20" viewBox="0 0 20 20" fill="none" xmlns="http://www.w3.org/2000/svg">
<g clip-path="url(#clip0_2362_1443)">
<path d="M10.0001 10.0003L1.94323 7.87161C1.42487 9.83354 1.64019 11.9172 2.54881 13.7317C3.45742 15.5461 4.99688 16.9667 6.87837 17.7269L10.0001 10.0003ZM10.0001 10.0003L10.0874 1.66745C8.23806 1.64808 6.43486 2.24443 4.96177 3.36258C3.48867 4.48072 2.42937 6.05712 1.95071 7.8435L10.0001 10.0003ZM18.3334 10.0003C18.3334 14.6027 14.6025 18.3337 10.0001 18.3337C5.39772 18.3337 1.66676 14.6027 1.66676 10.0003C1.66676 5.39795 5.39772 1.66699 10.0001 1.66699C14.6025 1.66699 18.3334 5.39795 18.3334 10.0003Z" stroke="#3D3E5C" stroke-width="1.5" stroke-linecap="round" stroke-linejoin="round"/>
</g>
<defs>
<clipPath id="clip0_2362_1443">
<rect width="20" height="20" fill="white"/>
</clipPath>
</defs>
</svg>
